<svg width="400" height="400" viewBox="0 0 400 400" fill="none" xmlns="http://www.w3.org/2000/svg">
<path d="M25.4189 93.9381C-10.0142 146.781 -5.61425 215.509 21.4689 271.623C22.0856 272.99 22.7689 274.287 23.4356 275.585C23.8189 276.485 24.2522 277.315 24.7189 278.181C24.9356 278.648 25.2356 279.15 25.5022 279.599C25.9356 280.499 26.4022 281.364 26.8522 282.229L29.4689 286.832C29.9689 287.68 30.4189 288.51 30.9689 289.358C31.9022 290.985 32.9689 292.594 33.9355 294.22C34.3688 294.913 34.7688 295.57 35.2522 296.245C36.8683 298.887 38.5921 301.455 40.4188 303.945C41.7188 305.796 43.0188 307.596 44.4188 309.395C44.8688 310.053 45.3854 310.71 45.8521 311.385L49.5188 316.04C49.9854 316.559 50.4354 317.199 50.9188 317.753C52.5521 319.794 54.2854 321.784 56.0187 323.809L56.1021 323.912C58.2184 326.684 60.5908 329.234 63.1853 331.526C64.5187 332.962 65.852 334.381 67.2686 335.765L68.952 337.443C70.802 339.26 72.6686 341.06 74.6186 342.79C74.6519 342.79 74.6686 342.825 74.7019 342.842L75.6519 343.707C77.3519 345.247 79.0686 346.787 80.8186 348.206L82.9019 350.023C84.3185 351.199 85.8019 352.324 87.2352 353.483L89.5185 355.3C91.0685 356.511 92.7185 357.705 94.3018 358.882C94.8851 359.314 95.4685 359.747 96.0685 360.145L96.5685 360.543L101.235 363.744L103.235 365.128C105.702 366.755 108.135 368.312 110.568 369.835C111.252 370.181 111.968 370.596 112.618 371.011C114.418 372.084 116.285 373.174 118.102 374.178C119.102 374.766 120.135 375.268 121.168 375.804C122.418 376.531 123.718 377.24 125.068 377.967C125.391 378.069 125.703 378.202 126.002 378.365C126.552 378.625 127.068 378.901 127.602 379.178C129.602 380.216 131.685 381.22 133.852 382.206C134.252 382.379 134.685 382.552 135.118 382.795C137.518 383.885 139.935 384.923 142.418 385.944C142.985 386.117 143.585 386.411 144.168 386.636C146.418 387.518 148.735 388.418 151.018 389.266L151.851 389.577C154.418 390.477 156.935 391.342 159.518 392.173C160.118 392.346 160.735 392.571 161.368 392.744C164.035 393.574 166.601 394.561 169.268 395.114C340.484 427.506 390.233 288.234 390.233 288.234C348.434 344.745 274.267 359.643 204.001 343.067C201.401 342.444 198.801 341.579 196.168 340.783C192.996 339.805 189.845 338.755 186.718 337.634L185.685 337.218C183.418 336.422 181.235 335.54 179.018 334.658C178.415 334.404 177.804 334.173 177.185 333.965C174.718 332.927 172.351 331.872 169.968 330.782C169.451 330.609 169.018 330.366 168.501 330.159C166.482 329.196 164.471 328.216 162.468 327.217C161.868 326.942 161.279 326.642 160.701 326.318C159.135 325.556 157.568 324.674 156.035 323.843C154.982 323.318 153.943 322.764 152.918 322.182C151.018 321.144 149.135 320.019 147.252 318.946C146.685 318.531 146.035 318.185 145.385 317.804C142.922 316.288 140.483 314.731 138.068 313.133C137.398 312.706 136.742 312.256 136.102 311.783C134.333 310.645 132.599 309.451 130.902 308.201C130.318 307.803 129.785 307.371 129.185 306.938C127.524 305.748 125.885 304.525 124.268 303.27C123.568 302.682 122.818 302.128 122.068 301.54C120.602 300.328 119.118 299.204 117.652 297.941L115.685 296.297C113.792 294.722 111.931 293.107 110.102 291.452C109.913 291.254 109.706 291.074 109.485 290.916L103.702 285.448L102.035 283.821C100.668 282.368 99.2685 280.984 97.8685 279.565L96.2351 277.834C94.4746 276.016 92.7574 274.152 91.0852 272.246L90.8352 271.969C89.0685 269.962 87.3352 267.903 85.6185 265.826C85.1685 265.307 84.7352 264.719 84.2852 264.148L80.5019 259.355C78.5801 256.791 76.691 254.201 74.8353 251.586C35.8688 196.372 21.7689 120.135 52.9521 57.619M135.335 49.4347C109.668 87.6917 111.102 138.874 131.102 179.346C134.407 186.156 138.183 192.708 142.402 198.95C146.235 204.66 150.468 211.426 155.618 216.045C157.401 218.156 159.335 220.198 161.351 222.274L162.851 223.832C164.751 225.735 166.718 227.587 168.685 229.455L168.951 229.68C171.199 231.717 173.5 233.691 175.851 235.598C176.418 235.996 176.901 236.463 177.451 236.861C179.785 238.73 182.151 240.529 184.585 242.329L184.835 242.484C185.868 243.263 186.968 243.972 188.135 244.734C188.601 245.045 189.135 245.461 189.635 245.772C191.401 246.949 193.135 248.056 194.935 249.181C195.218 249.302 195.468 249.458 195.735 249.579C197.235 250.53 198.868 251.447 200.435 252.295C200.985 252.641 201.518 252.901 202.101 253.23C203.201 253.801 204.301 254.406 205.384 254.995L205.918 255.237C208.168 256.396 210.468 257.469 212.718 258.524C213.284 258.767 213.768 258.957 214.251 259.199C216.101 260.03 217.984 260.826 219.851 261.57C220.684 261.864 221.468 262.21 222.251 262.469C223.951 263.127 225.751 263.733 227.418 264.338L229.751 265.117C232.201 265.895 234.668 266.916 237.234 267.366C369.4 290.085 400 184.398 400 184.398C372.45 225.579 319.134 245.184 262.317 229.871C259.803 229.196 257.307 228.446 254.834 227.621C254.034 227.379 253.334 227.119 252.568 226.877C250.834 226.254 249.051 225.666 247.368 224.991L244.968 224.057C243.084 223.278 241.184 222.551 239.368 221.721C238.801 221.461 238.284 221.288 237.851 221.029C235.518 219.939 233.168 218.866 230.884 217.707L227.451 215.855L225.468 214.817C223.973 213.993 222.501 213.127 221.051 212.221C220.696 212.04 220.351 211.838 220.018 211.616C218.251 210.474 216.401 209.366 214.718 208.19C214.151 207.861 213.634 207.463 213.101 207.117L209.634 204.764C207.234 203.034 204.884 201.165 202.501 199.348C201.968 198.846 201.451 198.431 200.935 197.981C175.951 177.598 156.251 149.706 146.902 118.162C137.068 85.3385 139.235 48.5523 156.235 18.67M227.768 16.1264C212.618 39.2086 211.168 67.8624 221.601 93.2978C232.684 120.342 255.334 141.573 281.734 151.609C282.817 152.042 283.867 152.405 285.001 152.82L286.467 153.287C288.001 153.806 289.551 154.377 291.134 154.741C364.15 169.362 383.917 115.809 389.233 107.953C371.85 133.873 342.7 140.085 306.934 131.053C304.02 130.297 301.149 129.373 298.334 128.285C294.829 127.008 291.391 125.541 288.034 123.89C281.68 120.699 275.641 116.874 270.001 112.47C237.968 87.2591 218.118 39.174 239.018 0" fill="#E43C13"/>
</svg>
