<svg width="195" height="220" viewBox="0 0 195 220" fill="none" xmlns="http://www.w3.org/2000/svg">
<g clip-path="url(#clip0_1_59)">
<path d="M88.7018 2.33899C94.03 -0.772632 100.97 -0.786687 106.294 2.33899C133.076 17.7791 159.868 33.1951 186.645 48.6447C191.682 51.5392 195.051 57.2581 194.999 63.1791V156.073C195.037 162.239 191.335 168.095 186.021 170.923C159.327 186.279 132.646 201.653 105.956 217.008C100.518 220.18 93.4384 219.936 88.17 216.503C80.167 211.77 72.1502 207.06 64.1464 202.331C62.5109 201.337 60.6672 200.545 59.5123 198.927C60.5333 197.523 62.3585 197.348 63.8418 196.735C67.1824 195.651 70.2506 193.912 73.3196 192.223C74.0957 191.681 75.0431 191.889 75.787 192.374C82.6305 196.377 89.4136 200.497 96.2801 204.463C97.7449 205.325 99.2281 204.179 100.48 203.468C126.675 188.362 152.903 173.314 179.095 158.205C180.065 157.728 180.601 156.677 180.522 155.592C180.541 124.949 180.528 94.2992 180.532 63.6554C180.642 62.4248 179.945 61.2933 178.854 60.7898C152.253 45.5049 125.664 30.1967 99.0667 14.9081C98.6058 14.5848 98.0599 14.4113 97.5008 14.4106C96.9415 14.4097 96.3952 14.5815 95.9334 14.9034C69.3361 30.1967 42.7525 45.519 16.1551 60.803C15.0684 61.3074 14.3391 62.4201 14.4683 63.6554C14.473 94.2992 14.4683 124.949 14.4683 155.597C14.4222 156.126 14.5362 156.657 14.7948 157.118C15.0534 157.579 15.4443 157.949 15.9148 158.176C23.0125 162.282 30.1193 166.36 37.2215 170.452C41.2227 172.65 46.1352 173.955 50.5436 172.271C54.4336 170.848 57.1605 166.798 57.0863 162.583C57.123 132.118 57.0679 101.649 57.1138 71.1889C57.0167 69.8365 58.274 68.7191 59.5629 68.8464C62.9732 68.8229 66.388 68.7996 69.7983 68.8558C71.2218 68.8229 72.2015 70.2792 72.0254 71.6417C72.0116 102.3 72.0622 132.958 72.0025 163.616C72.0116 171.787 68.7216 180.677 61.3139 184.675C52.1882 189.498 40.9089 188.475 31.8933 183.851C24.0885 179.876 16.6404 175.186 8.9741 170.928C3.64667 168.115 -0.0368422 162.236 0.000658716 156.074V63.1791C-0.0552101 57.1355 3.44769 51.3128 8.64119 48.4604C35.3311 33.0928 62.0165 17.7136 88.7018 2.33899Z" fill="#E43C13"/>
<path d="M111.986 66.6874C123.627 65.923 136.089 66.2344 146.563 72.0852C154.674 76.5687 159.17 85.9786 159.313 95.1713C159.087 96.4113 157.816 97.0953 156.656 97.0102C153.279 97.0055 149.9 97.0571 146.523 96.9867C145.09 97.043 144.258 95.6953 144.078 94.403C143.108 90.0046 140.757 85.6483 136.698 83.5268C130.469 80.3449 123.247 80.5049 116.455 80.5714C111.497 80.84 106.164 81.278 101.963 84.253C98.7384 86.5065 97.7588 91.0556 98.9099 94.7193C99.9951 97.3499 102.971 98.1986 105.407 98.981C119.435 102.724 134.3 102.352 148.062 107.278C153.758 109.286 159.332 113.191 161.282 119.277C163.832 127.433 162.715 137.183 157.026 143.73C152.414 149.119 145.696 152.052 138.995 153.645C130.082 155.673 120.831 155.724 111.778 154.824C103.267 153.834 94.409 151.552 87.8379 145.634C82.2189 140.657 79.4744 132.901 79.7469 125.416C79.8119 124.151 81.0457 123.269 82.2326 123.373C85.6337 123.345 89.0349 123.336 92.436 123.378C93.7944 123.279 94.8016 124.476 94.8713 125.783C95.4988 129.974 97.0425 134.372 100.624 136.857C107.537 141.406 116.21 141.095 124.125 141.222C130.682 140.926 138.043 140.836 143.394 136.415C146.218 133.892 147.054 129.673 146.291 126.042C145.464 122.978 142.322 121.549 139.623 120.616C125.775 116.145 110.743 117.768 97.0286 112.714C91.4609 110.706 86.0769 106.91 83.9378 101.074C80.9531 92.8148 82.3206 82.5984 88.6048 76.2713C94.732 69.9778 103.577 67.5549 111.986 66.6874Z" fill="#E43C13"/>
</g>
<defs>
<clipPath id="clip0_1_59">
<rect width="195" height="220" fill="white"/>
</clipPath>
</defs>
</svg>
