<svg width="360" height="148" viewBox="0 0 360 148" fill="none" xmlns="http://www.w3.org/2000/svg">
<path d="M33.3118 0.988342L37.2518 8.34741C38.1376 9.70544 39.0973 10.9075 40.2276 12.0269C43.5415 15.2813 46.6304 18.7547 49.4733 22.4233C56.1491 31.1403 60.652 40.8209 63.8677 51.2907C65.7962 57.6863 66.8438 64.247 66.9217 70.8814C67.2448 90.7148 60.4075 107.745 46.6221 121.899C44.3797 124.144 41.9572 126.203 39.3787 128.056C38.0131 128.056 37.3672 127.015 36.8043 126.056C35.7793 124.278 35.0971 122.325 34.7928 120.298C34.3083 117.899 33.99 115.499 34.1469 113.022V111.902C34.0361 111.663 32.832 1.55266 33.3118 0.988342Z" fill="#E43C13"/>
<path d="M33.3119 0.745182C33.1504 0.424024 32.9889 0.667184 32.8274 0.823179C32.9058 2.42896 32.343 3.8604 31.4618 5.22761C30.493 6.58564 29.2104 7.62711 27.9232 8.74656C20.7722 14.9036 15.1435 22.3407 10.6361 30.6586C4.6384 41.8532 1.54729 53.8507 0.670708 66.4811C0.269323 71.0374 2.11937 87.1132 3.56343 91.7521C7.50343 104.066 14.5807 114.384 23.7479 123.34C25.9993 125.496 28.4076 127.497 30.899 129.419C31.6233 129.419 31.7018 128.777 31.8678 128.299C32.1854 127.279 32.4275 126.236 32.5921 125.18L34.2069 113.187L33.3119 0.745182Z" fill="#FD9075"/>
<path d="M37.2518 132.928C37.4133 131.094 38.2991 129.57 39.2634 128.052C38.2945 127.653 37.5748 126.858 37.0119 125.973C36.5266 125.135 36.1248 124.251 35.8124 123.336C34.6867 119.977 34.4468 116.454 34.1238 113.022V110.943C33.7224 111.264 33.6394 113.98 33.6394 114.384C33.4046 118.011 32.9206 121.618 32.1908 125.18C31.9508 126.62 31.7894 128.056 30.8989 129.336C30.8989 129.497 30.8989 129.657 30.9774 129.896C32.426 134.135 32.8228 138.453 33.0673 142.852V144.458C33.0673 146.376 32.9889 145.972 34.5898 146.614C35.2357 146.853 35.9554 146.936 36.6014 147.413C37.0858 147.413 37.1642 147.014 37.1642 146.692L36.9243 144.054V136.695C36.8458 135.411 37.0857 134.135 37.2472 132.933L37.2518 132.928Z" fill="#FD7B7B"/>
<path d="M355.179 95.325C354.229 95.3249 353.3 95.0438 352.509 94.5172C351.718 93.9905 351.1 93.2417 350.734 92.3649C350.367 91.4882 350.268 90.5226 350.448 89.5896C350.629 88.6567 351.082 87.7979 351.749 87.1214C352.416 86.445 353.269 85.9809 354.199 85.7876C355.13 85.5944 356.097 85.6805 356.978 86.0352C357.86 86.3899 358.617 86.9974 359.154 87.7812C359.692 88.5651 359.985 89.4903 359.998 90.4405C360.016 91.0653 359.91 91.6875 359.686 92.2713C359.463 92.8551 359.127 93.3892 358.697 93.8429C358.267 94.2966 357.751 94.661 357.18 94.9154C356.609 95.1697 355.994 95.3089 355.369 95.325H355.179ZM355.179 86.1191C354.312 86.1139 353.462 86.366 352.738 86.8434C352.014 87.3209 351.448 88.0023 351.111 88.8015C350.774 89.6007 350.681 90.4819 350.845 91.3337C351.009 92.1854 351.421 92.9696 352.03 93.587C352.639 94.2044 353.418 94.6274 354.268 94.8025C355.117 94.9776 355.999 94.8969 356.803 94.5706C357.607 94.2444 358.296 93.6873 358.783 92.9696C359.27 92.252 359.533 91.406 359.54 90.5387C359.561 89.3948 359.127 88.2891 358.335 87.4643C357.542 86.6395 356.454 86.1628 355.31 86.1387H355.179M356.345 93.5702L355.101 90.8923H354.099V93.5702H353.365V87.4744H355.166C356.508 87.4744 357.065 88.0506 357.065 89.1768C357.106 89.5495 357.005 89.924 356.781 90.2251C356.558 90.5263 356.229 90.7318 355.86 90.8006L357.17 93.5637L356.345 93.5702ZM354.125 90.2571H355.179C356.037 90.2571 356.358 89.969 356.358 89.1899C356.358 88.4107 356.05 88.1488 355.087 88.1488H354.125V90.2571Z" fill="#E43C13"/>
<path d="M283.45 90.9313C284.76 91.9724 287.379 92.4045 289.664 92.4045C292.637 92.4045 295.557 91.8545 298.411 89.2747C301.266 86.695 303.316 82.5962 303.316 76.1403C303.316 69.9397 300.958 64.9111 296.113 61.9647C293.383 60.2492 289.847 59.5748 285.814 59.5748C284.787 59.5125 283.758 59.6367 282.776 59.9415C282.495 60.1593 282.296 60.4665 282.213 60.8123C282.088 61.9189 282.088 70.326 282.088 75.2956C282.088 80.3896 282.088 87.4938 282.213 88.3908C282.278 89.1307 282.645 90.4271 283.45 90.9706M271.069 56.8379C272.123 56.8379 276.13 57.0213 277.996 57.0213C281.479 57.0213 283.889 56.8379 290.404 56.8379C295.864 56.8379 300.461 58.3111 303.748 61.1331C307.722 64.5706 309.85 69.3569 309.85 75.1843C309.85 83.4736 306.072 88.2795 302.275 90.9575C298.497 93.7795 293.586 95.3771 286.56 95.3771C282.835 95.3771 276.444 95.2527 271.108 95.1938H270.997C270.748 94.7027 271.455 92.7908 271.887 92.7384C272.744 92.7086 273.591 92.5406 274.395 92.2408C275.521 91.7825 275.783 91.2063 275.907 89.1831C276.097 85.3724 276.032 80.8349 276.032 75.6754C276.032 71.9956 276.097 64.8129 275.973 62.5409C275.783 60.6421 274.984 60.151 273.354 59.7843C272.201 59.5389 271.036 59.3553 269.864 59.2343C269.746 58.8611 270.695 57.198 271.01 56.8379" fill="#E43C13"/>
<path d="M325.231 59.9283C324.982 59.9872 324.674 60.583 324.674 60.9104C324.609 63.117 324.55 68.8854 324.55 72.8729C324.564 72.9492 324.601 73.0193 324.656 73.0742C324.711 73.1291 324.781 73.1662 324.858 73.1806C325.663 73.2461 327.653 73.305 329.33 73.305C331.687 73.305 333.049 72.9973 333.795 72.6503C335.759 71.6681 336.702 69.5205 336.702 67.1896C336.702 61.8467 332.977 59.8235 327.45 59.8235C326.704 59.8158 325.958 59.8573 325.218 59.9479M339.308 84.4949C339.308 79.0931 335.334 76.0223 328.072 76.0223C327.018 75.9842 325.962 76.0061 324.91 76.0877C324.72 76.1467 324.537 76.2711 324.537 76.3955C324.537 80.2586 324.471 86.4592 324.661 88.9145C324.785 89.9556 325.532 91.4288 326.462 91.8609C327.45 92.4109 329.69 92.5157 331.235 92.5157C335.517 92.5157 339.308 90.1258 339.308 84.4818M314.015 56.9229C314.578 56.9229 316.228 57.1062 320.451 57.1062C324.419 57.1062 327.653 56.9884 331.49 56.9884C336.263 56.9884 342.844 58.7039 342.844 65.8211C342.844 69.311 340.362 72.1461 337.134 73.4949C336.951 73.5604 336.951 73.6782 337.134 73.7372C341.718 74.9026 345.757 77.7312 345.757 83.1264C345.757 88.4103 342.484 91.7234 337.691 93.8056C334.79 95.1151 331.143 95.5276 327.522 95.5276C324.733 95.5276 317.249 95.2329 313.118 95.2788C312.679 95.0954 313.517 93.1312 313.884 92.8234C314.837 92.7958 315.783 92.6484 316.699 92.3847C318.186 92.0181 318.369 91.5401 318.552 89.327C318.677 87.4282 318.677 80.6121 318.677 75.7669C318.677 69.1342 318.742 64.636 318.677 62.4491C318.618 60.7336 318.022 60.1771 316.817 59.8693C315.887 59.686 314.336 59.5027 313.091 59.3193C312.784 59.0116 313.746 57.1717 314.047 56.9229" fill="#E43C13"/>
<path d="M91.4157 95.3246C91.257 94.9303 91.1941 94.5039 91.2324 94.0806C91.2139 93.7937 91.2775 93.5076 91.4157 93.2556C92.2188 93.1401 93.0146 92.9783 93.799 92.771C94.899 92.496 95.3115 91.9002 95.377 90.499C95.5538 87.2252 95.5669 80.9788 95.5014 76.6181V76.4937C95.5402 76.2051 95.5073 75.9113 95.4056 75.6384C95.304 75.3655 95.1368 75.1218 94.9187 74.9288C93.9027 74.2899 92.8002 73.8003 91.6449 73.4752C91.1211 73.3247 90.833 73.0497 90.8526 72.7288C90.8723 72.408 91.1931 72.0348 91.8675 71.9038C94.7264 71.4942 97.5308 70.7673 100.229 69.7366C100.42 69.9867 100.509 70.3005 100.478 70.6139C100.472 70.8156 100.455 71.0168 100.425 71.2163C100.373 71.8318 100.32 72.5259 100.32 73.2264C100.327 73.2863 100.345 73.3443 100.375 73.3969C100.404 73.4494 100.444 73.4955 100.492 73.5322C100.539 73.5689 100.594 73.5956 100.653 73.6105C100.711 73.6255 100.772 73.6285 100.831 73.6193C100.931 73.6068 101.025 73.5633 101.1 73.4949C104.622 70.7318 107.778 69.7431 109.395 69.7431C112.06 69.7431 114.136 71.0199 115.74 73.6389C115.778 73.7014 115.83 73.7533 115.893 73.79C115.956 73.8266 116.027 73.8467 116.1 73.8485C116.167 73.8488 116.233 73.8329 116.292 73.8021C116.352 73.7713 116.402 73.7265 116.441 73.6717C119.675 71.2098 122.89 69.7431 125.038 69.7431C130.112 69.7431 133.15 73.5473 133.15 79.9115C133.15 81.7449 133.15 84.0627 133.15 86.23C133.15 88.1288 133.117 89.9097 133.117 91.1407C133.16 91.4257 133.275 91.6953 133.45 91.9243C133.625 92.1532 133.855 92.3341 134.119 92.4502C135.14 92.846 136.207 93.11 137.295 93.2359H137.347C137.398 93.9431 137.288 94.6526 137.026 95.3115C136.692 95.3115 136.228 95.3115 135.645 95.2526C134.591 95.2002 133.144 95.1282 131.461 95.1282C128.082 95.1282 126.321 95.1937 124.638 95.305C124.498 94.6224 124.498 93.9185 124.638 93.2359C125.337 93.1313 126.028 92.9804 126.707 92.7841C127.781 92.4306 128.095 91.946 128.161 90.5187C128.161 89.5038 128.383 80.5729 128.036 78.4514C127.879 77.0958 127.214 75.85 126.176 74.9645C125.137 74.079 123.802 73.6195 122.438 73.6782C120.401 73.7935 118.45 74.5369 116.853 75.8062C116.723 75.9498 116.651 76.1364 116.65 76.33V76.3758C116.878 77.8637 116.959 79.3703 116.892 80.874C116.892 82.0395 116.892 83.2508 116.892 84.4621C116.892 86.924 116.892 89.2484 116.892 91.0097C116.87 91.4042 116.99 91.7936 117.23 92.1072C117.47 92.4208 117.815 92.6378 118.202 92.7187L119.02 92.9085C119.505 93.0264 120.009 93.1508 120.762 93.2687C120.883 93.7766 120.883 94.3059 120.762 94.8139C120.732 95.0029 120.658 95.1822 120.546 95.3377C118.667 95.2788 116.742 95.2198 113.959 95.2198C113.114 95.2198 111.746 95.2591 110.528 95.2853L108.086 95.3442C107.941 95.0081 107.878 94.6423 107.903 94.277C107.87 93.9318 107.935 93.5843 108.092 93.2752L108.839 93.1377C109.494 93.0198 110.057 92.9216 110.587 92.7907C111.504 92.5026 111.851 91.9984 111.897 90.8264C112.073 88.096 112.217 80.2258 111.831 78.2616C111.176 75.0991 109.376 73.4949 106.482 73.4949C104.448 73.6227 102.5 74.3647 100.897 75.6229C100.729 75.7869 100.596 75.9837 100.507 76.201C100.418 76.4184 100.374 76.6517 100.379 76.8866V80.1604C100.379 84.0889 100.379 89.0324 100.451 91.1603C100.454 91.5816 100.61 91.9876 100.889 92.303C101.168 92.6185 101.553 92.822 101.97 92.8758C102.239 92.9544 102.704 93.0329 103.247 93.1246L104.249 93.2948C104.359 93.9899 104.303 94.7012 104.085 95.3704C103.542 95.3704 102.881 95.3704 102.121 95.305C100.962 95.2526 99.502 95.1871 97.8651 95.1871C95.9008 95.1871 94.5913 95.2526 93.4913 95.305C92.7645 95.3377 92.136 95.3639 91.527 95.3704" fill="#E43C13"/>
<path d="M153.716 72.3687C152.668 72.3456 151.637 72.6376 150.757 73.2068C148.596 74.5163 147.483 77.1354 147.483 80.9788C147.483 88.1812 151.084 93.2032 156.25 93.2032C157.629 93.2555 158.977 92.7881 160.028 91.8937C161.619 90.5841 162.457 87.9651 162.457 84.2592C162.457 77.1616 158.934 72.3949 153.69 72.3949M154.705 95.8943C145.381 95.8943 142.061 89.052 142.061 82.655C141.986 80.6008 142.447 78.5624 143.399 76.7404C144.35 74.9184 145.76 73.3756 147.489 72.264C150.014 70.6997 152.913 69.8427 155.883 69.7824C163.001 69.7824 167.97 74.8961 167.97 82.2229C167.97 87.199 166.006 91.1341 162.228 93.5895C159.947 94.9631 157.364 95.7546 154.705 95.8943Z" fill="#E43C13"/>
<path d="M248.657 72.3687C247.605 72.3466 246.57 72.6384 245.684 73.2068C243.53 74.5163 242.41 77.1354 242.41 80.9788C242.41 88.1812 246.018 93.2032 251.178 93.2032C252.563 93.2618 253.92 92.794 254.975 91.8937C256.56 90.5841 257.398 87.9651 257.398 84.2592C257.398 77.1616 253.875 72.3949 248.637 72.3949M249.645 95.8943C240.322 95.8943 237.002 89.052 237.002 82.655C236.927 80.6001 237.388 78.561 238.341 76.7388C239.294 74.9167 240.706 73.3744 242.436 72.264C244.959 70.6997 247.856 69.8426 250.824 69.7824C257.941 69.7824 262.911 74.9026 262.911 82.2229C262.911 87.2121 260.947 91.1407 257.169 93.5961C254.887 94.9674 252.304 95.7566 249.645 95.8943Z" fill="#E43C13"/>
<path d="M217.254 72.1264C214.38 72.1264 212.527 74.3984 212.527 77.9079C212.527 81.4174 214.124 85.5948 218.623 85.5948C219.681 85.5857 220.7 85.1924 221.49 84.4882C222.538 83.5257 223.232 81.5418 223.232 79.44C223.232 74.8567 221.006 72.1264 217.267 72.1264M216.901 96.3525C216.088 96.3433 215.288 96.544 214.576 96.9352C212.298 98.3888 211.243 99.8424 211.243 101.519C211.239 102.278 211.411 103.029 211.746 103.71C212.082 104.392 212.571 104.987 213.175 105.447C214.773 106.802 216.933 107.464 219.762 107.464C225.34 107.464 227.835 104.465 227.835 101.492C227.835 99.4233 226.8 98.0418 224.666 97.2561C223.023 96.6537 220.273 96.3263 216.907 96.3263M217.28 110.561C213.934 110.561 211.518 109.854 209.462 108.269C208.613 107.629 207.914 106.812 207.412 105.875C206.91 104.938 206.617 103.903 206.555 102.841C206.58 101.818 206.97 100.838 207.655 100.078C208.238 99.4233 209.62 98.1793 212.71 96.0317C212.758 96.0103 212.799 95.9755 212.828 95.9313C212.858 95.8872 212.873 95.8357 212.874 95.7829C212.874 95.7245 212.855 95.6677 212.819 95.6214C212.784 95.5751 212.734 95.5421 212.677 95.5275C210.104 94.5454 209.325 92.9084 209.096 92.0442C209.107 91.999 209.107 91.9519 209.096 91.9067C209.019 91.7291 209.009 91.5298 209.068 91.3455C209.127 91.1613 209.251 91.0047 209.417 90.9049C209.777 90.6495 210.353 90.3025 210.968 89.9424C211.836 89.4588 212.67 88.9163 213.463 88.3186C213.54 88.2412 213.584 88.1365 213.584 88.0272C213.584 87.918 213.54 87.8132 213.463 87.7358L213.378 87.6769C209.574 86.3674 207.655 83.5716 207.655 79.2567C207.644 77.9095 207.958 76.5794 208.57 75.3792C209.182 74.179 210.074 73.1441 211.171 72.3621C213.511 70.7981 216.221 69.8768 219.028 69.6906H219.173C221.239 69.7416 223.277 70.1861 225.177 71.0002C226.314 71.4084 227.518 71.5994 228.725 71.5633C230.847 71.5633 231.77 70.9085 232.569 70.1097C232.695 70.4609 232.763 70.8301 232.772 71.2031C232.819 72.0983 232.575 72.9847 232.078 73.7305C231.777 74.0626 231.409 74.3266 230.998 74.505C230.587 74.6834 230.143 74.7721 229.695 74.765C229.599 74.7716 229.502 74.7716 229.406 74.765C228.916 74.7275 228.429 74.6464 227.953 74.5228L227.711 74.6079C227.639 74.7192 227.711 74.8371 227.75 74.9942C227.764 75.0259 227.775 75.0588 227.783 75.0924C227.954 75.8667 228.07 76.6522 228.13 77.443C228.13 81.9609 226.349 83.9317 224.424 85.3853C222.562 86.7819 220.35 87.6383 218.033 87.8602L217.287 87.9257L216.56 87.9847H216.508C216.089 88.1025 214.995 88.6394 214.995 89.5888C214.995 90.3876 215.493 91.3829 217.85 91.5531L219.382 91.6579C222.492 91.8805 226.388 92.1489 228.215 92.7644C229.429 93.1923 230.477 93.9921 231.211 95.05C231.944 96.108 232.326 97.3702 232.3 98.6572C232.3 102.71 229.42 106.514 224.594 108.852C222.319 109.939 219.828 110.496 217.306 110.482" fill="#E43C13"/>
<path d="M203.006 93.1638C201.782 93.0537 200.585 92.7417 199.464 92.2406C199.234 92.0015 199.083 91.6975 199.032 91.3698C198.907 89.4644 198.907 83.9448 198.907 80.3305C198.907 77.3841 198.409 74.8109 197.159 72.9645C196.466 71.9273 195.524 71.0806 194.419 70.5018C193.314 69.923 192.081 69.6306 190.834 69.6514C188.411 69.6514 185.183 71.3079 182.518 73.5799C182.453 73.6389 182.04 74.0317 182.054 73.4228C182.067 72.8139 182.152 71.596 182.211 70.8037C182.236 70.5953 182.213 70.3838 182.143 70.1861C182.072 69.9883 181.956 69.8097 181.805 69.6645C180.063 70.5353 175.172 71.7008 173.365 71.8776C172.055 72.1329 171.708 73.4031 173.116 73.8418C174.244 74.1528 175.321 74.6271 176.311 75.2496C176.516 75.4429 176.668 75.6847 176.754 75.9526C176.839 76.2204 176.856 76.5056 176.802 76.7817C176.868 80.8936 176.868 87.212 176.678 90.6495C176.619 91.9983 176.246 92.4894 175.251 92.7382L175.342 92.7055C174.586 92.8961 173.818 93.0404 173.044 93.1376C172.736 93.4388 172.736 95.2198 173.044 95.593C173.666 95.593 176.822 95.4096 179.435 95.4096C183.036 95.4096 184.895 95.593 185.832 95.593C186.213 94.8328 186.302 93.9589 186.08 93.1376C185.221 93.0992 184.368 92.9742 183.533 92.7644C182.538 92.5221 182.289 92.0311 182.224 90.9311C182.099 88.037 182.099 81.9019 182.099 77.7311C182.099 76.5656 182.407 76.0156 182.754 75.6948C184.193 74.5235 185.987 73.8748 187.842 73.8549C189.22 73.8071 190.567 74.2739 191.62 75.1644C192.635 76.0513 193.272 77.2929 193.401 78.6347C193.643 80.9591 193.584 85.6341 193.584 89.6739C193.584 91.8805 193.401 92.437 192.589 92.6793C191.767 92.9553 190.913 93.1204 190.048 93.1704C189.675 93.5436 189.793 95.259 190.048 95.6257C191.659 95.6257 193.532 95.4424 196.249 95.4424C199.667 95.4424 201.84 95.6257 202.705 95.6257C203.092 94.8674 203.181 93.9911 202.954 93.1704" fill="#E43C13"/>
</svg>
