<svg width="290" height="220" viewBox="0 0 290 220" fill="none" xmlns="http://www.w3.org/2000/svg">
<g clip-path="url(#clip0_1_55)">
<path d="M139.492 1.54494C143.023 -0.510335 147.623 -0.519621 151.152 1.54494C168.903 11.7435 186.661 21.926 204.41 32.1307C207.748 34.0426 209.981 37.82 209.947 41.7311V103.089C209.972 107.162 207.518 111.03 203.996 112.898C186.303 123.04 168.618 133.195 150.928 143.337C147.323 145.433 142.631 145.272 139.139 143.005C133.834 139.878 128.521 136.767 123.216 133.644C122.132 132.986 120.91 132.463 120.144 131.395C120.821 130.468 122.031 130.352 123.014 129.947C125.228 129.231 127.262 128.082 129.296 126.967C129.81 126.609 130.438 126.746 130.931 127.067C135.467 129.711 139.963 132.432 144.514 135.051C145.485 135.621 146.468 134.864 147.298 134.394C164.661 124.417 182.045 114.477 199.405 104.497C200.048 104.182 200.404 103.488 200.352 102.771C200.364 82.5306 200.355 62.2864 200.358 42.0456C200.431 41.2326 199.969 40.4854 199.246 40.1529C181.614 30.0569 163.991 19.9455 146.362 9.84705C146.056 9.63355 145.694 9.519 145.323 9.51842C144.953 9.51789 144.591 9.63137 144.285 9.84395C126.656 19.9455 109.035 30.0662 91.4063 40.1617C90.6861 40.4945 90.2027 41.2295 90.2885 42.0456C90.2915 62.2864 90.2885 82.5306 90.2885 102.774C90.2578 103.124 90.3333 103.475 90.5049 103.78C90.6762 104.084 90.9351 104.328 91.247 104.478C95.9517 107.191 100.662 109.884 105.37 112.587C108.021 114.038 111.278 114.9 114.199 113.789C116.778 112.848 118.585 110.173 118.536 107.389C118.561 87.2669 118.524 67.1413 118.554 47.0215C118.49 46.1285 119.323 45.3904 120.178 45.4742C122.438 45.4589 124.702 45.4432 126.962 45.4803C127.905 45.4589 128.555 46.4208 128.438 47.3207C128.429 67.5706 128.462 87.8213 128.423 108.071C128.429 113.468 126.248 119.341 121.338 121.981C115.29 125.167 107.813 124.491 101.838 121.437C96.6646 118.811 91.7281 115.714 86.6468 112.901C83.1155 111.043 80.674 107.16 80.6989 103.09V41.7311C80.6618 37.739 82.9837 33.893 86.4261 32.009C104.117 21.8584 121.804 11.7001 139.492 1.54494Z" fill="#E43C13"/>
<path d="M154.925 44.0482C162.64 43.5432 170.9 43.749 177.843 47.6137C183.219 50.5751 186.199 56.7902 186.294 62.8622C186.144 63.6814 185.302 64.1332 184.532 64.077C182.294 64.0739 180.055 64.108 177.816 64.0613C176.867 64.0984 176.315 63.2085 176.195 62.3549C175.552 59.4497 173.994 56.5721 171.305 55.171C167.176 53.0694 162.389 53.1749 157.887 53.2189C154.6 53.3961 151.066 53.6853 148.282 55.6504C146.144 57.1392 145.495 60.1438 146.257 62.5638C146.977 64.3012 148.95 64.8621 150.564 65.3786C159.862 67.8514 169.715 67.6054 178.836 70.8591C182.612 72.1856 186.306 74.7644 187.598 78.7841C189.289 84.1716 188.548 90.6113 184.778 94.9367C181.721 98.4957 177.268 100.433 172.827 101.485C166.919 102.825 160.787 102.859 154.787 102.264C149.145 101.61 143.274 100.103 138.919 96.1947C135.194 92.9066 133.375 87.7834 133.556 82.839C133.599 82.0041 134.417 81.4218 135.204 81.4903C137.458 81.4719 139.712 81.4658 141.967 81.4933C142.867 81.4279 143.534 82.2192 143.581 83.0819C143.997 85.8501 145.02 88.7553 147.394 90.3963C151.975 93.4017 157.724 93.1958 162.97 93.28C167.317 93.0841 172.196 93.0248 175.743 90.104C177.614 88.4381 178.168 85.6508 177.662 83.2533C177.115 81.229 175.032 80.2855 173.243 79.6687C164.064 76.7165 154.101 77.7878 145.011 74.4491C141.32 73.1234 137.752 70.6162 136.334 66.7614C134.355 61.3058 135.262 54.5577 139.427 50.3785C143.488 46.2214 149.351 44.621 154.925 44.0482Z" fill="#E43C13"/>
<path d="M93.4988 195.671C93.4988 203.602 93.4988 211.533 93.4988 219.786C92.3721 219.839 91.3523 219.893 90.1184 220C90.1184 198.993 90.1184 178.254 90.1184 157.194C91.0842 157.14 92.1036 157.033 93.4452 156.979C93.4452 160.194 93.4452 163.142 93.4452 166.089C93.6597 166.25 93.9279 166.357 94.1428 166.518C94.4109 166.036 94.6791 165.554 94.9477 165.071C101.064 152.692 121.454 152.692 128.376 165.875C133.312 175.253 133.205 185.06 128.644 194.545C126.068 199.851 121.508 203.066 115.659 203.816C112.332 204.245 108.791 204.245 105.518 203.709C100.528 202.959 96.611 200.172 94.4109 195.349C94.0355 195.456 93.767 195.564 93.4988 195.671ZM93.1234 180.023C93.2843 180.076 93.4452 180.13 93.6061 180.183C93.8742 182.595 93.9279 185.006 94.3573 187.364C95.8062 195.295 100.904 200.172 108.522 201.083C116.41 201.994 123.332 198.082 126.229 190.74C129.342 182.809 129.127 174.878 124.942 167.322C121.669 161.374 116.357 159.016 109.65 159.337C103.318 159.605 98.7035 162.552 96.2352 168.233C94.6255 171.931 94.0891 176.057 93.1234 180.023Z" fill="#E43C13"/>
<path d="M3.99894 180.773C3.9453 191.866 9.47193 199.529 18.3253 200.923C27.3933 202.316 32.9199 198.725 37.9637 187.74C38.8757 187.74 39.8415 187.74 40.754 187.74C40.9149 188.115 41.1294 188.383 41.0758 188.597C37.749 201.244 27.0714 207.3 14.5693 203.602C9.4183 202.048 5.39404 198.94 3.14044 194.063C-1.20576 184.578 -1.1521 174.932 3.99894 165.822C9.09635 156.819 17.0376 155.104 25.5153 156.337C33.2419 157.462 39.4661 164.053 41.0758 172.467C41.5585 175.039 41.6125 177.719 41.9343 180.827C29.003 180.773 16.5546 180.773 3.99894 180.773ZM4.53553 177.397C15.5352 177.397 26.5884 177.397 37.5881 177.397C37.9637 167.376 31.2029 159.873 22.2959 159.284C12.8523 158.695 4.15991 166.786 4.53553 177.397Z" fill="#E43C13"/>
<path d="M165.291 180.826C165.237 191.973 170.388 199.368 179.242 200.708C187.612 201.994 195.285 199.529 198.934 187.793C199.9 187.739 200.973 187.686 201.992 187.632C202.153 188.114 202.314 188.382 202.261 188.597C199.578 199.636 192.334 204.888 180.798 204.298C170.335 203.762 163.091 196.688 161.749 185.488C160.999 178.897 161.481 172.466 164.754 166.464C168.886 158.855 176.29 155.157 185.466 156.122C192.978 156.872 199.631 162.552 201.724 170.43C202.582 173.645 202.69 177.075 203.226 180.88C196.358 180.88 190.134 180.88 183.91 180.88C177.847 180.826 171.783 180.826 165.291 180.826ZM165.452 177.397C176.666 177.397 187.827 177.397 198.988 177.397C198.988 167.536 192.71 160.034 184.446 159.337C173.34 158.426 165.935 166.786 165.452 177.397Z" fill="#E43C13"/>
<path d="M288.487 170.86C287.092 170.753 286.18 170.699 285.268 170.645C283.765 162.446 280.009 159.285 271.8 159.392C269.01 159.445 266.112 159.767 263.483 160.678C260.264 161.803 258.01 164.268 257.956 168.02C257.903 171.878 260.21 174.182 263.483 175.308C266.917 176.54 270.619 177.183 274.161 178.148C277.166 178.952 280.278 179.595 283.122 180.72C287.306 182.382 289.56 185.597 289.936 190.152C290.311 195.029 288.755 198.994 284.409 201.245C276.468 205.371 268.258 205.586 260.317 201.459C255.274 198.833 252.966 194.225 252.805 188.223C253.986 188.223 255.005 188.223 256.025 188.223C258.976 199.744 271.21 204.782 281.619 198.887C284.677 197.172 286.502 194.653 286.394 190.956C286.287 187.365 284.302 185.007 281.19 183.882C277.595 182.596 273.839 181.846 270.19 180.72C266.702 179.649 263.054 178.791 259.727 177.291C252.43 174.022 252.215 161.91 260.103 158.266C267.185 154.997 274.483 154.73 281.512 158.052C286.448 160.463 288.648 164.858 288.487 170.86Z" fill="#E43C13"/>
<path d="M209.236 188.33C210.309 188.276 211.328 188.222 212.563 188.115C213.314 193.635 215.943 197.6 220.987 199.637C226.728 201.941 232.416 201.566 237.942 198.94C241.162 197.439 242.879 194.76 242.825 191.116C242.771 187.579 240.893 185.114 237.728 183.935C234.025 182.595 230.108 181.845 226.299 180.72C223.026 179.755 219.699 178.951 216.641 177.612C212.455 175.79 210.685 172.199 210.738 167.644C210.792 163.196 212.938 159.927 216.855 158.212C223.67 155.158 230.752 154.89 237.567 157.944C242.664 160.249 245.025 164.643 244.918 170.645C243.791 170.699 242.718 170.752 241.752 170.806C240.142 162.499 236.547 159.338 228.338 159.445C225.279 159.498 222.114 160.088 219.27 161.106C216.104 162.231 214.333 164.857 214.387 168.394C214.494 171.77 216.426 174.075 219.431 175.093C223.187 176.379 227.104 177.129 230.913 178.255C234.186 179.166 237.513 180.023 240.625 181.363C247.601 184.257 248.835 196.1 241.698 200.923C235.152 205.371 222.114 205.478 215.675 200.976C211.597 198.136 209.88 194.76 209.236 188.33Z" fill="#E43C13"/>
<path d="M66.3479 179.005C72.4651 187.097 78.3133 194.867 84.5378 203.12C82.8744 203.227 81.5865 203.334 79.9767 203.441C74.7721 196.421 69.5674 189.347 63.9873 181.791C58.5141 189.026 53.2557 195.939 47.8365 203.12C46.6558 203.12 45.3146 203.12 43.3295 203.12C49.4463 194.974 55.2949 187.204 61.4118 179.005C55.8849 171.77 50.3048 164.536 44.5098 156.979C46.4413 156.979 47.8902 156.979 49.3927 156.979C54.1679 163.25 58.9435 169.573 63.9336 176.165C68.9234 169.627 73.6454 163.41 78.4746 157.087C79.8158 157.087 81.1574 157.087 83.0353 157.087C77.4012 164.482 71.982 171.556 66.3479 179.005Z" fill="#E43C13"/>
<path d="M144.633 164.59C149.14 159.071 153.755 156.927 161.16 157.034C161.267 157.892 161.374 158.803 161.482 159.767C160.945 159.982 160.569 160.303 160.194 160.303C151.877 159.821 143.292 166.895 143.238 177.344C143.185 184.74 143.185 192.135 143.185 199.53C143.185 200.656 143.185 201.781 143.185 203.121C141.897 203.121 140.877 203.121 139.697 203.121C139.697 187.794 139.697 172.682 139.697 157.195C140.77 157.142 141.79 157.088 143.185 157.034C143.185 159.714 143.185 162.125 143.185 164.537C143.185 165.233 143.185 165.93 143.185 166.627C143.399 166.68 143.56 166.68 143.775 166.734C144.043 165.984 144.312 165.287 144.633 164.59Z" fill="#E43C13"/>
</g>
<defs>
<clipPath id="clip0_1_55">
<rect width="290" height="220" fill="white"/>
</clipPath>
</defs>
</svg>
